<svg width="159" height="81" viewBox="0 0 159 81" fill="none" xmlns="http://www.w3.org/2000/svg">
<g filter="url(#filter0_d_7_12)">
<path d="M4.67614 50.6648V49.233C6.61932 49.2216 7.94886 48.8523 8.66477 48.125C9.39205 47.3864 9.75568 46.0568 9.75568 44.1364V36.3636C9.75568 35.0114 9.88636 33.8409 10.1477 32.8523C10.4205 31.8636 10.8409 31.0455 11.4091 30.3977C11.9773 29.7386 12.7102 29.25 13.608 28.9318C14.5057 28.6136 15.5852 28.4545 16.8466 28.4545V30.2955C15.6193 30.2841 14.625 30.4943 13.8636 30.9261C13.1136 31.3466 12.5625 32.0057 12.2102 32.9034C11.8693 33.8011 11.6989 34.9545 11.6989 36.3636V44.5966C11.6989 45.642 11.5852 46.5455 11.358 47.3068C11.142 48.0682 10.7727 48.6989 10.25 49.1989C9.72727 49.6875 9.01136 50.0568 8.10227 50.3068C7.19318 50.5455 6.05114 50.6648 4.67614 50.6648ZM16.8466 72.0909C15.5852 72.0909 14.5057 71.9318 13.608 71.6136C12.7102 71.2955 11.9773 70.8068 11.4091 70.1477C10.8409 69.5 10.4205 68.6818 10.1477 67.6932C9.88636 66.7045 9.75568 65.5341 9.75568 64.1818V56.4091C9.75568 54.4886 9.39205 53.1648 8.66477 52.4375C7.94886 51.6989 6.61932 51.3239 4.67614 51.3125V49.8807C6.05114 49.892 7.19318 50.0227 8.10227 50.2727C9.01136 50.5114 9.72727 50.875 10.25 51.3636C10.7727 51.8523 11.142 52.4773 11.358 53.2386C11.5852 54 11.6989 54.9034 11.6989 55.9489V64.1818C11.6989 65.5909 11.8693 66.7443 12.2102 67.642C12.5625 68.5398 13.1136 69.1989 13.8636 69.6193C14.625 70.0398 15.6193 70.25 16.8466 70.25V72.0909ZM4.67614 51.3125V49.233H8.47727V51.3125H4.67614ZM18.3509 65L24.1463 30.0909H47.9759L46.8168 36.9432H31.4247L30.2656 44.1023H44.1406L42.9815 50.9716H29.1065L26.7884 65H18.3509ZM46.429 65L52.2244 30.0909H76.5653L75.4062 36.9432H59.5028L58.3438 44.1023H73.0028L71.8438 50.9716H57.1847L56.0256 58.1477H71.929L70.7699 65H46.429ZM76.054 65L81.8494 30.0909H106.19L105.031 36.9432H89.1278L87.9688 44.1023H102.628L101.469 50.9716H86.8097L85.6506 58.1477H101.554L100.395 65H76.054ZM118.77 65H105.679L111.474 30.0909H124.173C127.719 30.0909 130.673 30.8125 133.037 32.2557C135.412 33.6875 137.088 35.7443 138.065 38.4261C139.054 41.0966 139.241 44.2784 138.628 47.9716C138.037 51.5398 136.849 54.5966 135.065 57.142C133.293 59.6875 131.02 61.6364 128.247 62.9886C125.474 64.3295 122.315 65 118.77 65ZM115.293 57.8068H119.298C121.253 57.8068 122.98 57.4545 124.48 56.75C125.991 56.0341 127.241 54.892 128.23 53.3239C129.219 51.7443 129.923 49.6705 130.344 47.1023C130.753 44.6477 130.736 42.7102 130.293 41.2898C129.861 39.858 129.02 38.8352 127.77 38.2216C126.531 37.5966 124.912 37.2841 122.912 37.2841H118.719L115.293 57.8068ZM153.491 49.8807V51.3125C151.548 51.3239 150.213 51.6989 149.486 52.4375C148.77 53.1648 148.412 54.4886 148.412 56.4091V64.1818C148.412 65.5341 148.276 66.7045 148.003 67.6932C147.741 68.6818 147.327 69.5 146.759 70.1477C146.19 70.8068 145.457 71.2955 144.56 71.6136C143.662 71.9318 142.582 72.0909 141.321 72.0909V70.25C142.56 70.25 143.554 70.0398 144.304 69.6193C145.054 69.1989 145.599 68.5398 145.94 67.642C146.293 66.7443 146.469 65.5909 146.469 64.1818V55.9489C146.469 54.9034 146.577 54 146.793 53.2386C147.02 52.4773 147.395 51.8523 147.918 51.3636C148.44 50.8636 149.156 50.4943 150.065 50.2557C150.974 50.0057 152.116 49.8807 153.491 49.8807ZM141.321 28.4545C142.582 28.4545 143.662 28.6136 144.56 28.9318C145.457 29.25 146.19 29.7386 146.759 30.3977C147.327 31.0455 147.741 31.8636 148.003 32.8523C148.276 33.8409 148.412 35.0114 148.412 36.3636V44.1364C148.412 46.0568 148.77 47.3864 149.486 48.125C150.213 48.8523 151.548 49.2216 153.491 49.233V50.6648C152.116 50.6534 150.974 50.5284 150.065 50.2898C149.156 50.0398 148.44 49.6705 147.918 49.1818C147.395 48.6932 147.02 48.0682 146.793 47.3068C146.577 46.5455 146.469 45.642 146.469 44.5966V36.3636C146.469 34.9545 146.293 33.8011 145.94 32.9034C145.599 32.0057 145.054 31.3466 144.304 30.9261C143.554 30.4943 142.56 30.2841 141.321 30.2955V28.4545ZM153.491 49.233V51.3125H149.69V49.233H153.491Z" fill="#4B49AC"/>
</g>
<path d="M49.9403 10.6165C49.9688 9.90625 49.7614 9.35795 49.3182 8.97159C48.8807 8.58523 48.2188 8.39204 47.3324 8.39204C46.7301 8.39204 46.2074 8.47727 45.7642 8.64773C45.321 8.8125 44.9659 9.04261 44.6989 9.33807C44.4375 9.62784 44.2756 9.96307 44.2131 10.3438C44.1506 10.6562 44.1705 10.929 44.2727 11.1619C44.3807 11.3949 44.5483 11.5966 44.7756 11.767C45.0085 11.9318 45.2841 12.0767 45.6023 12.2017C45.9205 12.321 46.2585 12.4233 46.6165 12.5085L48.1165 12.8835C48.8494 13.054 49.5085 13.2812 50.0938 13.5653C50.6847 13.8494 51.179 14.1989 51.5767 14.6136C51.9801 15.0284 52.2642 15.517 52.429 16.0795C52.5938 16.642 52.6165 17.2869 52.4972 18.0142C52.3153 19.0824 51.892 20.0085 51.2273 20.7926C50.5625 21.571 49.6903 22.1761 48.6108 22.608C47.5313 23.0341 46.2813 23.2472 44.8608 23.2472C43.4517 23.2472 42.2614 23.0312 41.2898 22.5994C40.3182 22.1676 39.6108 21.5284 39.1676 20.6818C38.7301 19.8295 38.5994 18.7756 38.7756 17.5199H42.3466C42.2841 18.1051 42.3693 18.5937 42.6023 18.9858C42.8409 19.3722 43.196 19.6648 43.6676 19.8636C44.1392 20.0568 44.6932 20.1534 45.3295 20.1534C45.9602 20.1534 46.5199 20.0625 47.0085 19.8807C47.5028 19.6989 47.9034 19.446 48.2102 19.1222C48.517 18.7983 48.7045 18.4261 48.7727 18.0057C48.8409 17.6136 48.7812 17.2841 48.5938 17.017C48.4062 16.75 48.1051 16.5227 47.6903 16.3352C47.2813 16.142 46.7727 15.9716 46.1648 15.8239L44.3409 15.3466C42.9318 14.9886 41.8665 14.429 41.1449 13.6676C40.4233 12.9062 40.1648 11.8807 40.3693 10.5909C40.5511 9.53409 40.9915 8.6108 41.6903 7.82102C42.3949 7.02557 43.2812 6.40909 44.3494 5.97159C45.4233 5.52841 46.5966 5.30682 47.8693 5.30682C49.1648 5.30682 50.2585 5.53125 51.1506 5.98011C52.0426 6.4233 52.6932 7.04261 53.1023 7.83807C53.5114 8.63352 53.6364 9.55966 53.4773 10.6165H49.9403ZM54.0845 23L56.2663 9.90909H59.897L57.7152 23H54.0845ZM58.4567 8.20454C57.9169 8.20454 57.4709 8.02557 57.1186 7.66761C56.772 7.30398 56.63 6.87216 56.6925 6.37216C56.755 5.8608 56.9993 5.42898 57.4254 5.0767C57.8516 4.71875 58.3345 4.53977 58.8743 4.53977C59.4141 4.53977 59.8544 4.71875 60.1953 5.0767C60.5362 5.42898 60.6783 5.8608 60.6214 6.37216C60.5646 6.87216 60.3232 7.30398 59.897 7.66761C59.4766 8.02557 58.9964 8.20454 58.4567 8.20454ZM60.6491 23L62.831 9.90909H66.2827L65.9077 12.2188H66.0526C66.4503 11.4517 67.0043 10.8466 67.7145 10.4034C68.4304 9.96023 69.2344 9.73864 70.1264 9.73864C71.0128 9.73864 71.7344 9.96307 72.2912 10.4119C72.8537 10.8551 73.1776 11.4574 73.2628 12.2188H73.3991C73.7855 11.4688 74.3679 10.8693 75.1463 10.4205C75.9247 9.96591 76.794 9.73864 77.7543 9.73864C78.9645 9.73864 79.8906 10.1278 80.5327 10.9062C81.1747 11.6847 81.3764 12.7812 81.1378 14.196L79.6719 23H76.0412L77.4048 14.9119C77.5128 14.179 77.4048 13.6335 77.081 13.2756C76.7571 12.9119 76.3054 12.7301 75.7259 12.7301C75.0668 12.7301 74.5185 12.9403 74.081 13.3608C73.6435 13.7756 73.3736 14.3239 73.2713 15.0057L71.9162 23H68.3963L69.777 14.8352C69.8736 14.1875 69.7685 13.6761 69.4616 13.3011C69.1605 12.9205 68.7088 12.7301 68.1065 12.7301C67.7088 12.7301 67.331 12.8324 66.973 13.0369C66.6207 13.2358 66.3224 13.517 66.0781 13.8807C65.8338 14.2386 65.6747 14.6591 65.6009 15.142L64.2713 23H60.6491ZM81.7216 27.9091L84.7386 9.90909H88.3182L87.9517 12.108H88.1136C88.3295 11.7557 88.6165 11.3977 88.9744 11.0341C89.3381 10.6648 89.7898 10.358 90.3295 10.1136C90.8693 9.86364 91.5028 9.73864 92.2301 9.73864C93.1903 9.73864 94.0284 9.98864 94.7443 10.4886C95.4602 10.983 95.9773 11.7301 96.2955 12.7301C96.6193 13.7244 96.6562 14.9716 96.4062 16.4716C96.1676 17.9318 95.7273 19.1648 95.0852 20.1705C94.4489 21.1705 93.6847 21.929 92.7926 22.446C91.9063 22.9574 90.9659 23.2131 89.9716 23.2131C89.267 23.2131 88.6875 23.0966 88.233 22.8636C87.7841 22.6307 87.4347 22.3381 87.1847 21.9858C86.9347 21.6278 86.7585 21.267 86.6562 20.9034H86.5199L85.3608 27.9091H81.7216ZM87.2017 16.4545C87.0767 17.233 87.071 17.9119 87.1847 18.4915C87.304 19.071 87.5426 19.5227 87.9006 19.8466C88.2585 20.1648 88.7301 20.3239 89.3153 20.3239C89.9063 20.3239 90.4318 20.1619 90.892 19.8381C91.3523 19.5085 91.7358 19.054 92.0426 18.4744C92.3494 17.8892 92.5682 17.2159 92.6989 16.4545C92.8182 15.6989 92.821 15.0341 92.7074 14.4602C92.5938 13.8864 92.3608 13.4375 92.0085 13.1136C91.6563 12.7898 91.179 12.6278 90.5767 12.6278C89.9915 12.6278 89.4659 12.7841 89 13.0966C88.5398 13.4091 88.1563 13.8523 87.8494 14.4261C87.5426 15 87.3267 15.6761 87.2017 16.4545ZM104.254 5.54545L101.356 23H97.7251L100.623 5.54545H104.254ZM110.196 23.2557C108.855 23.2557 107.744 22.983 106.864 22.4375C105.983 21.8864 105.364 21.108 105.006 20.1023C104.653 19.0909 104.594 17.8949 104.827 16.5142C105.054 15.1676 105.511 13.9858 106.199 12.9688C106.892 11.9517 107.761 11.1591 108.807 10.5909C109.852 10.0227 111.017 9.73864 112.301 9.73864C113.165 9.73864 113.946 9.87784 114.645 10.1562C115.349 10.429 115.935 10.8437 116.401 11.4006C116.866 11.9517 117.185 12.642 117.355 13.4716C117.531 14.3011 117.528 15.2727 117.347 16.3864L117.185 17.3835H106.139L106.489 15.1335H114.125C114.21 14.6108 114.176 14.1477 114.023 13.7443C113.869 13.3409 113.614 13.0256 113.256 12.7983C112.898 12.5653 112.457 12.4489 111.935 12.4489C111.401 12.4489 110.901 12.5795 110.435 12.8409C109.969 13.1023 109.577 13.446 109.259 13.8722C108.946 14.2926 108.744 14.75 108.653 15.2443L108.253 17.4773C108.139 18.1648 108.162 18.7358 108.321 19.1903C108.486 19.6449 108.77 19.9858 109.173 20.2131C109.577 20.4347 110.088 20.5455 110.707 20.5455C111.111 20.5455 111.489 20.4886 111.841 20.375C112.199 20.2614 112.517 20.0938 112.795 19.8722C113.074 19.6449 113.301 19.3636 113.477 19.0284L116.793 19.25C116.486 20.0568 116.02 20.7614 115.395 21.3636C114.77 21.9602 114.017 22.4261 113.136 22.7614C112.261 23.0909 111.281 23.2557 110.196 23.2557Z" fill="black"/>
<defs>
<filter id="filter0_d_7_12" x="0.676136" y="28.4545" width="156.815" height="51.6364" filterUnits="userSpaceOnUse" color-interpolation-filters="sRGB">
<feFlood flood-opacity="0" result="BackgroundImageFix"/>
<feColorMatrix in="SourceAlpha" type="matrix" values="0 0 0 0 0 0 0 0 0 0 0 0 0 0 0 0 0 0 127 0" result="hardAlpha"/>
<feOffset dy="4"/>
<feGaussianBlur stdDeviation="2"/>
<feComposite in2="hardAlpha" operator="out"/>
<feColorMatrix type="matrix" values="0 0 0 0 0 0 0 0 0 0 0 0 0 0 0 0 0 0 0.25 0"/>
<feBlend mode="normal" in2="BackgroundImageFix" result="effect1_dropShadow_7_12"/>
<feBlend mode="normal" in="SourceGraphic" in2="effect1_dropShadow_7_12" result="shape"/>
</filter>
</defs>
</svg>
