<svg width="246" height="62" viewBox="0 0 246 62" fill="none" xmlns="http://www.w3.org/2000/svg">
<g filter="url(#filter0_d_6_2)">
<path d="M91.6761 31.6648V30.233C93.6193 30.2216 94.9489 29.8523 95.6648 29.125C96.392 28.3864 96.7557 27.0568 96.7557 25.1364V17.3636C96.7557 16.0114 96.8864 14.8409 97.1477 13.8523C97.4205 12.8636 97.8409 12.0455 98.4091 11.3977C98.9773 10.7386 99.7102 10.25 100.608 9.93182C101.506 9.61363 102.585 9.45454 103.847 9.45454V11.2955C102.619 11.2841 101.625 11.4943 100.864 11.9261C100.114 12.3466 99.5625 13.0057 99.2102 13.9034C98.8693 14.8011 98.6989 15.9545 98.6989 17.3636V25.5966C98.6989 26.642 98.5852 27.5455 98.358 28.3068C98.142 29.0682 97.7727 29.6989 97.25 30.1989C96.7273 30.6875 96.0114 31.0568 95.1023 31.3068C94.1932 31.5455 93.0511 31.6648 91.6761 31.6648ZM103.847 53.0909C102.585 53.0909 101.506 52.9318 100.608 52.6136C99.7102 52.2955 98.9773 51.8068 98.4091 51.1477C97.8409 50.5 97.4205 49.6818 97.1477 48.6932C96.8864 47.7045 96.7557 46.5341 96.7557 45.1818V37.4091C96.7557 35.4886 96.392 34.1648 95.6648 33.4375C94.9489 32.6989 93.6193 32.3239 91.6761 32.3125V30.8807C93.0511 30.892 94.1932 31.0227 95.1023 31.2727C96.0114 31.5114 96.7273 31.875 97.25 32.3636C97.7727 32.8523 98.142 33.4773 98.358 34.2386C98.5852 35 98.6989 35.9034 98.6989 36.9489V45.1818C98.6989 46.5909 98.8693 47.7443 99.2102 48.642C99.5625 49.5398 100.114 50.1989 100.864 50.6193C101.625 51.0398 102.619 51.25 103.847 51.25V53.0909ZM91.6761 32.3125V30.233H95.4773V32.3125H91.6761ZM105.351 46L111.146 11.0909H134.976L133.817 17.9432H118.425L117.266 25.1023H131.141L129.982 31.9716H116.107L113.788 46H105.351ZM133.429 46L139.224 11.0909H163.565L162.406 17.9432H146.503L145.344 25.1023H160.003L158.844 31.9716H144.185L143.026 39.1477H158.929L157.77 46H133.429ZM163.054 46L168.849 11.0909H193.19L192.031 17.9432H176.128L174.969 25.1023H189.628L188.469 31.9716H173.81L172.651 39.1477H188.554L187.395 46H163.054ZM205.77 46H192.679L198.474 11.0909H211.173C214.719 11.0909 217.673 11.8125 220.037 13.2557C222.412 14.6875 224.088 16.7443 225.065 19.4261C226.054 22.0966 226.241 25.2784 225.628 28.9716C225.037 32.5398 223.849 35.5966 222.065 38.142C220.293 40.6875 218.02 42.6364 215.247 43.9886C212.474 45.3295 209.315 46 205.77 46ZM202.293 38.8068H206.298C208.253 38.8068 209.98 38.4545 211.48 37.75C212.991 37.0341 214.241 35.892 215.23 34.3239C216.219 32.7443 216.923 30.6705 217.344 28.1023C217.753 25.6477 217.736 23.7102 217.293 22.2898C216.861 20.858 216.02 19.8352 214.77 19.2216C213.531 18.5966 211.912 18.2841 209.912 18.2841H205.719L202.293 38.8068ZM240.491 30.8807V32.3125C238.548 32.3239 237.213 32.6989 236.486 33.4375C235.77 34.1648 235.412 35.4886 235.412 37.4091V45.1818C235.412 46.5341 235.276 47.7045 235.003 48.6932C234.741 49.6818 234.327 50.5 233.759 51.1477C233.19 51.8068 232.457 52.2955 231.56 52.6136C230.662 52.9318 229.582 53.0909 228.321 53.0909V51.25C229.56 51.25 230.554 51.0398 231.304 50.6193C232.054 50.1989 232.599 49.5398 232.94 48.642C233.293 47.7443 233.469 46.5909 233.469 45.1818V36.9489C233.469 35.9034 233.577 35 233.793 34.2386C234.02 33.4773 234.395 32.8523 234.918 32.3636C235.44 31.8636 236.156 31.4943 237.065 31.2557C237.974 31.0057 239.116 30.8807 240.491 30.8807ZM228.321 9.45454C229.582 9.45454 230.662 9.61363 231.56 9.93182C232.457 10.25 233.19 10.7386 233.759 11.3977C234.327 12.0455 234.741 12.8636 235.003 13.8523C235.276 14.8409 235.412 16.0114 235.412 17.3636V25.1364C235.412 27.0568 235.77 28.3864 236.486 29.125C237.213 29.8523 238.548 30.2216 240.491 30.233V31.6648C239.116 31.6534 237.974 31.5284 237.065 31.2898C236.156 31.0398 235.44 30.6705 234.918 30.1818C234.395 29.6932 234.02 29.0682 233.793 28.3068C233.577 27.5455 233.469 26.642 233.469 25.5966V17.3636C233.469 15.9545 233.293 14.8011 232.94 13.9034C232.599 13.0057 232.054 12.3466 231.304 11.9261C230.554 11.4943 229.56 11.2841 228.321 11.2955V9.45454ZM240.491 30.233V32.3125H236.69V30.233H240.491Z" fill="#4B49AC"/>
</g>
<path d="M11.9403 27.6165C11.9688 26.9062 11.7614 26.358 11.3182 25.9716C10.8807 25.5852 10.2188 25.392 9.33239 25.392C8.73011 25.392 8.20739 25.4773 7.7642 25.6477C7.32102 25.8125 6.96591 26.0426 6.69886 26.3381C6.4375 26.6278 6.27557 26.9631 6.21307 27.3438C6.15057 27.6562 6.17045 27.929 6.27273 28.1619C6.38068 28.3949 6.5483 28.5966 6.77557 28.767C7.00852 28.9318 7.28409 29.0767 7.60227 29.2017C7.92045 29.321 8.25852 29.4233 8.61648 29.5085L10.1165 29.8835C10.8494 30.054 11.5085 30.2812 12.0938 30.5653C12.6847 30.8494 13.179 31.1989 13.5767 31.6136C13.9801 32.0284 14.2642 32.517 14.429 33.0795C14.5938 33.642 14.6165 34.2869 14.4972 35.0142C14.3153 36.0824 13.892 37.0085 13.2273 37.7926C12.5625 38.571 11.6903 39.1761 10.6108 39.608C9.53125 40.0341 8.28125 40.2472 6.8608 40.2472C5.4517 40.2472 4.26136 40.0312 3.28977 39.5994C2.31818 39.1676 1.6108 38.5284 1.16761 37.6818C0.730114 36.8295 0.599432 35.7756 0.775568 34.5199H4.34659C4.28409 35.1051 4.36932 35.5937 4.60227 35.9858C4.84091 36.3722 5.19602 36.6648 5.66761 36.8636C6.1392 37.0568 6.69318 37.1534 7.32955 37.1534C7.96023 37.1534 8.51989 37.0625 9.00852 36.8807C9.50284 36.6989 9.90341 36.446 10.2102 36.1222C10.517 35.7983 10.7045 35.4261 10.7727 35.0057C10.8409 34.6136 10.7812 34.2841 10.5938 34.017C10.4062 33.75 10.1051 33.5227 9.69034 33.3352C9.28125 33.142 8.77273 32.9716 8.16477 32.8239L6.34091 32.3466C4.93182 31.9886 3.86648 31.429 3.14489 30.6676C2.4233 29.9062 2.16477 28.8807 2.36932 27.5909C2.55114 26.5341 2.99148 25.6108 3.69034 24.821C4.39489 24.0256 5.28125 23.4091 6.34943 22.9716C7.4233 22.5284 8.59659 22.3068 9.86932 22.3068C11.1648 22.3068 12.2585 22.5312 13.1506 22.9801C14.0426 23.4233 14.6932 24.0426 15.1023 24.8381C15.5114 25.6335 15.6364 26.5597 15.4773 27.6165H11.9403ZM16.0845 40L18.2663 26.9091H21.897L19.7152 40H16.0845ZM20.4567 25.2045C19.9169 25.2045 19.4709 25.0256 19.1186 24.6676C18.772 24.304 18.63 23.8722 18.6925 23.3722C18.755 22.8608 18.9993 22.429 19.4254 22.0767C19.8516 21.7187 20.3345 21.5398 20.8743 21.5398C21.4141 21.5398 21.8544 21.7187 22.1953 22.0767C22.5362 22.429 22.6783 22.8608 22.6214 23.3722C22.5646 23.8722 22.3232 24.304 21.897 24.6676C21.4766 25.0256 20.9964 25.2045 20.4567 25.2045ZM22.6491 40L24.831 26.9091H28.2827L27.9077 29.2188H28.0526C28.4503 28.4517 29.0043 27.8466 29.7145 27.4034C30.4304 26.9602 31.2344 26.7386 32.1264 26.7386C33.0128 26.7386 33.7344 26.9631 34.2912 27.4119C34.8537 27.8551 35.1776 28.4574 35.2628 29.2188H35.3991C35.7855 28.4688 36.3679 27.8693 37.1463 27.4205C37.9247 26.9659 38.794 26.7386 39.7543 26.7386C40.9645 26.7386 41.8906 27.1278 42.5327 27.9062C43.1747 28.6847 43.3764 29.7812 43.1378 31.196L41.6719 40H38.0412L39.4048 31.9119C39.5128 31.179 39.4048 30.6335 39.081 30.2756C38.7571 29.9119 38.3054 29.7301 37.7259 29.7301C37.0668 29.7301 36.5185 29.9403 36.081 30.3608C35.6435 30.7756 35.3736 31.3239 35.2713 32.0057L33.9162 40H30.3963L31.777 31.8352C31.8736 31.1875 31.7685 30.6761 31.4616 30.3011C31.1605 29.9205 30.7088 29.7301 30.1065 29.7301C29.7088 29.7301 29.331 29.8324 28.973 30.0369C28.6207 30.2358 28.3224 30.517 28.0781 30.8807C27.8338 31.2386 27.6747 31.6591 27.6009 32.142L26.2713 40H22.6491ZM43.7216 44.9091L46.7386 26.9091H50.3182L49.9517 29.108H50.1136C50.3295 28.7557 50.6165 28.3977 50.9744 28.0341C51.3381 27.6648 51.7898 27.358 52.3295 27.1136C52.8693 26.8636 53.5028 26.7386 54.2301 26.7386C55.1903 26.7386 56.0284 26.9886 56.7443 27.4886C57.4602 27.983 57.9773 28.7301 58.2955 29.7301C58.6193 30.7244 58.6562 31.9716 58.4062 33.4716C58.1676 34.9318 57.7273 36.1648 57.0852 37.1705C56.4489 38.1705 55.6847 38.929 54.7926 39.446C53.9063 39.9574 52.9659 40.2131 51.9716 40.2131C51.267 40.2131 50.6875 40.0966 50.233 39.8636C49.7841 39.6307 49.4347 39.3381 49.1847 38.9858C48.9347 38.6278 48.7585 38.267 48.6562 37.9034H48.5199L47.3608 44.9091H43.7216ZM49.2017 33.4545C49.0767 34.233 49.071 34.9119 49.1847 35.4915C49.304 36.071 49.5426 36.5227 49.9006 36.8466C50.2585 37.1648 50.7301 37.3239 51.3153 37.3239C51.9063 37.3239 52.4318 37.1619 52.892 36.8381C53.3523 36.5085 53.7358 36.054 54.0426 35.4744C54.3494 34.8892 54.5682 34.2159 54.6989 33.4545C54.8182 32.6989 54.821 32.0341 54.7074 31.4602C54.5938 30.8864 54.3608 30.4375 54.0085 30.1136C53.6563 29.7898 53.179 29.6278 52.5767 29.6278C51.9915 29.6278 51.4659 29.7841 51 30.0966C50.5398 30.4091 50.1563 30.8523 49.8494 31.4261C49.5426 32 49.3267 32.6761 49.2017 33.4545ZM66.2536 22.5455L63.3558 40H59.7251L62.6229 22.5455H66.2536ZM72.196 40.2557C70.8551 40.2557 69.7443 39.983 68.8636 39.4375C67.983 38.8864 67.3636 38.108 67.0057 37.1023C66.6534 36.0909 66.5938 34.8949 66.8267 33.5142C67.054 32.1676 67.5114 30.9858 68.1989 29.9688C68.892 28.9517 69.7614 28.1591 70.8068 27.5909C71.8523 27.0227 73.017 26.7386 74.3011 26.7386C75.1648 26.7386 75.946 26.8778 76.6449 27.1562C77.3494 27.429 77.9347 27.8437 78.4006 28.4006C78.8665 28.9517 79.1847 29.642 79.3551 30.4716C79.5313 31.3011 79.5284 32.2727 79.3466 33.3864L79.1847 34.3835H68.1392L68.4886 32.1335H76.125C76.2102 31.6108 76.1761 31.1477 76.0227 30.7443C75.8693 30.3409 75.6136 30.0256 75.2557 29.7983C74.8977 29.5653 74.4574 29.4489 73.9347 29.4489C73.4006 29.4489 72.9006 29.5795 72.4347 29.8409C71.9688 30.1023 71.5767 30.446 71.2585 30.8722C70.946 31.2926 70.7443 31.75 70.6534 32.2443L70.2528 34.4773C70.1392 35.1648 70.1619 35.7358 70.321 36.1903C70.4858 36.6449 70.7699 36.9858 71.1733 37.2131C71.5767 37.4347 72.0881 37.5455 72.7074 37.5455C73.1108 37.5455 73.4886 37.4886 73.8409 37.375C74.1989 37.2614 74.517 37.0938 74.7955 36.8722C75.0739 36.6449 75.3011 36.3636 75.4773 36.0284L78.7926 36.25C78.4858 37.0568 78.0199 37.7614 77.3949 38.3636C76.7699 38.9602 76.017 39.4261 75.1364 39.7614C74.2614 40.0909 73.2813 40.2557 72.196 40.2557Z" fill="black"/>
<defs>
<filter id="filter0_d_6_2" x="87.6761" y="9.45454" width="156.815" height="51.6364" filterUnits="userSpaceOnUse" color-interpolation-filters="sRGB">
<feFlood flood-opacity="0" result="BackgroundImageFix"/>
<feColorMatrix in="SourceAlpha" type="matrix" values="0 0 0 0 0 0 0 0 0 0 0 0 0 0 0 0 0 0 127 0" result="hardAlpha"/>
<feOffset dy="4"/>
<feGaussianBlur stdDeviation="2"/>
<feComposite in2="hardAlpha" operator="out"/>
<feColorMatrix type="matrix" values="0 0 0 0 0 0 0 0 0 0 0 0 0 0 0 0 0 0 0.25 0"/>
<feBlend mode="normal" in2="BackgroundImageFix" result="effect1_dropShadow_6_2"/>
<feBlend mode="normal" in="SourceGraphic" in2="effect1_dropShadow_6_2" result="shape"/>
</filter>
</defs>
</svg>
