<svg width="64" height="65" viewBox="0 0 64 65" fill="none" xmlns="http://www.w3.org/2000/svg">
<g filter="url(#filter0_d_7_17)">
<path d="M4.67614 31.6648V30.233C6.61932 30.2216 7.94886 29.8523 8.66477 29.125C9.39205 28.3864 9.75568 27.0568 9.75568 25.1364V17.3636C9.75568 16.0114 9.88636 14.8409 10.1477 13.8523C10.4205 12.8636 10.8409 12.0455 11.4091 11.3977C11.9773 10.7386 12.7102 10.25 13.608 9.93182C14.5057 9.61363 15.5852 9.45454 16.8466 9.45454V11.2955C15.6193 11.2841 14.625 11.4943 13.8636 11.9261C13.1136 12.3466 12.5625 13.0057 12.2102 13.9034C11.8693 14.8011 11.6989 15.9545 11.6989 17.3636V25.5966C11.6989 26.642 11.5852 27.5455 11.358 28.3068C11.142 29.0682 10.7727 29.6989 10.25 30.1989C9.72727 30.6875 9.01136 31.0568 8.10227 31.3068C7.19318 31.5455 6.05114 31.6648 4.67614 31.6648ZM16.8466 53.0909C15.5852 53.0909 14.5057 52.9318 13.608 52.6136C12.7102 52.2955 11.9773 51.8068 11.4091 51.1477C10.8409 50.5 10.4205 49.6818 10.1477 48.6932C9.88636 47.7045 9.75568 46.5341 9.75568 45.1818V37.4091C9.75568 35.4886 9.39205 34.1648 8.66477 33.4375C7.94886 32.6989 6.61932 32.3239 4.67614 32.3125V30.8807C6.05114 30.892 7.19318 31.0227 8.10227 31.2727C9.01136 31.5114 9.72727 31.875 10.25 32.3636C10.7727 32.8523 11.142 33.4773 11.358 34.2386C11.5852 35 11.6989 35.9034 11.6989 36.9489V45.1818C11.6989 46.5909 11.8693 47.7443 12.2102 48.642C12.5625 49.5398 13.1136 50.1989 13.8636 50.6193C14.625 51.0398 15.6193 51.25 16.8466 51.25V53.0909ZM4.67614 32.3125V30.233H8.47727V32.3125H4.67614ZM20.5327 46V11.0909H44.3622V17.9432H28.9702V25.1023H42.8452V31.9716H28.9702V46H20.5327ZM59.179 30.8807V32.3125C57.2358 32.3239 55.9006 32.6989 55.1733 33.4375C54.4574 34.1648 54.0994 35.4886 54.0994 37.4091V45.1818C54.0994 46.5341 53.9631 47.7045 53.6903 48.6932C53.429 49.6818 53.0142 50.5 52.446 51.1477C51.8778 51.8068 51.1449 52.2955 50.2472 52.6136C49.3494 52.9318 48.2699 53.0909 47.0085 53.0909V51.25C48.2472 51.25 49.2415 51.0398 49.9915 50.6193C50.7415 50.1989 51.2869 49.5398 51.6278 48.642C51.9801 47.7443 52.1562 46.5909 52.1562 45.1818V36.9489C52.1562 35.9034 52.2642 35 52.4801 34.2386C52.7074 33.4773 53.0824 32.8523 53.6051 32.3636C54.1278 31.8636 54.8438 31.4943 55.7528 31.2557C56.6619 31.0057 57.804 30.8807 59.179 30.8807ZM47.0085 9.45454C48.2699 9.45454 49.3494 9.61363 50.2472 9.93182C51.1449 10.25 51.8778 10.7386 52.446 11.3977C53.0142 12.0455 53.429 12.8636 53.6903 13.8523C53.9631 14.8409 54.0994 16.0114 54.0994 17.3636V25.1364C54.0994 27.0568 54.4574 28.3864 55.1733 29.125C55.9006 29.8523 57.2358 30.2216 59.179 30.233V31.6648C57.804 31.6534 56.6619 31.5284 55.7528 31.2898C54.8438 31.0398 54.1278 30.6705 53.6051 30.1818C53.0824 29.6932 52.7074 29.0682 52.4801 28.3068C52.2642 27.5455 52.1562 26.642 52.1562 25.5966V17.3636C52.1562 15.9545 51.9801 14.8011 51.6278 13.9034C51.2869 13.0057 50.7415 12.3466 49.9915 11.9261C49.2415 11.4943 48.2472 11.2841 47.0085 11.2955V9.45454ZM59.179 30.233V32.3125H55.3778V30.233H59.179Z" fill="#4B49AC"/>
</g>
<path d="M41.9403 46.1165C41.9688 45.4062 41.7614 44.858 41.3182 44.4716C40.8807 44.0852 40.2188 43.892 39.3324 43.892C38.7301 43.892 38.2074 43.9773 37.7642 44.1477C37.321 44.3125 36.9659 44.5426 36.6989 44.8381C36.4375 45.1278 36.2756 45.4631 36.2131 45.8438C36.1506 46.1562 36.1705 46.429 36.2727 46.6619C36.3807 46.8949 36.5483 47.0966 36.7756 47.267C37.0085 47.4318 37.2841 47.5767 37.6023 47.7017C37.9205 47.821 38.2585 47.9233 38.6165 48.0085L40.1165 48.3835C40.8494 48.554 41.5085 48.7812 42.0938 49.0653C42.6847 49.3494 43.179 49.6989 43.5767 50.1136C43.9801 50.5284 44.2642 51.017 44.429 51.5795C44.5938 52.142 44.6165 52.7869 44.4972 53.5142C44.3153 54.5824 43.892 55.5085 43.2273 56.2926C42.5625 57.071 41.6903 57.6761 40.6108 58.108C39.5313 58.5341 38.2813 58.7472 36.8608 58.7472C35.4517 58.7472 34.2614 58.5312 33.2898 58.0994C32.3182 57.6676 31.6108 57.0284 31.1676 56.1818C30.7301 55.3295 30.5994 54.2756 30.7756 53.0199H34.3466C34.2841 53.6051 34.3693 54.0937 34.6023 54.4858C34.8409 54.8722 35.196 55.1648 35.6676 55.3636C36.1392 55.5568 36.6932 55.6534 37.3295 55.6534C37.9602 55.6534 38.5199 55.5625 39.0085 55.3807C39.5028 55.1989 39.9034 54.946 40.2102 54.6222C40.517 54.2983 40.7045 53.9261 40.7727 53.5057C40.8409 53.1136 40.7812 52.7841 40.5938 52.517C40.4062 52.25 40.1051 52.0227 39.6903 51.8352C39.2813 51.642 38.7727 51.4716 38.1648 51.3239L36.3409 50.8466C34.9318 50.4886 33.8665 49.929 33.1449 49.1676C32.4233 48.4062 32.1648 47.3807 32.3693 46.0909C32.5511 45.0341 32.9915 44.1108 33.6903 43.321C34.3949 42.5256 35.2812 41.9091 36.3494 41.4716C37.4233 41.0284 38.5966 40.8068 39.8693 40.8068C41.1648 40.8068 42.2585 41.0312 43.1506 41.4801C44.0426 41.9233 44.6932 42.5426 45.1023 43.3381C45.5114 44.1335 45.6364 45.0597 45.4773 46.1165H41.9403Z" fill="black"/>
<defs>
<filter id="filter0_d_7_17" x="0.676136" y="9.45454" width="62.5028" height="51.6364" filterUnits="userSpaceOnUse" color-interpolation-filters="sRGB">
<feFlood flood-opacity="0" result="BackgroundImageFix"/>
<feColorMatrix in="SourceAlpha" type="matrix" values="0 0 0 0 0 0 0 0 0 0 0 0 0 0 0 0 0 0 127 0" result="hardAlpha"/>
<feOffset dy="4"/>
<feGaussianBlur stdDeviation="2"/>
<feComposite in2="hardAlpha" operator="out"/>
<feColorMatrix type="matrix" values="0 0 0 0 0 0 0 0 0 0 0 0 0 0 0 0 0 0 0.25 0"/>
<feBlend mode="normal" in2="BackgroundImageFix" result="effect1_dropShadow_7_17"/>
<feBlend mode="normal" in="SourceGraphic" in2="effect1_dropShadow_7_17" result="shape"/>
</filter>
</defs>
</svg>
